<svg width="37" height="41" viewBox="0 0 37 41" fill="none" xmlns="http://www.w3.org/2000/svg">
<path d="M14.3475 17.1996C13.8854 17.1607 13.4222 17.261 13.0186 17.4874C12.6149 17.7139 12.2896 18.0559 12.0853 18.4687C11.8809 18.8816 11.807 19.346 11.8732 19.8012C11.9394 20.2564 12.1427 20.6811 12.4564 21.0198C12.7701 21.3585 13.1796 21.5954 13.6313 21.6995C14.0831 21.8036 14.5559 21.77 14.9881 21.6031C15.4202 21.4362 15.7915 21.1438 16.0533 20.7642C16.315 20.3845 16.4551 19.9354 16.4552 19.4755C16.4677 19.1888 16.423 18.9024 16.3238 18.6328C16.2246 18.3632 16.0728 18.1157 15.877 17.9043C15.6813 17.6929 15.4454 17.5219 15.183 17.401C14.9205 17.2801 14.6366 17.2116 14.3475 17.1996ZM21.8977 17.1996C21.4356 17.1607 20.9724 17.261 20.5688 17.4874C20.1651 17.7139 19.8398 18.0559 19.6355 18.4687C19.4311 18.8816 19.3572 19.346 19.4234 19.8012C19.4896 20.2564 19.6929 20.6811 20.0066 21.0198C20.3203 21.3585 20.7298 21.5954 21.1815 21.6995C21.6333 21.8036 22.1061 21.77 22.5383 21.6031C22.9704 21.4362 23.3417 21.1438 23.6035 20.7642C23.8653 20.3845 24.0054 19.9354 24.0054 19.4755C24.0179 19.1883 23.973 18.9014 23.8734 18.6314C23.7738 18.3614 23.6214 18.1136 23.425 17.9022C23.2286 17.6907 22.992 17.5198 22.7288 17.3993C22.4656 17.2787 22.1811 17.2108 21.8914 17.1996H21.8977Z" fill="#7289DA"/>
<path d="M31.9311 0H4.23757C3.67971 0.00122751 3.12756 0.111433 2.61267 0.324322C2.09777 0.537212 1.63021 0.848616 1.23669 1.24074C0.843181 1.63287 0.53142 2.09804 0.319228 2.60967C0.107035 3.12131 -0.00143337 3.66939 1.43019e-05 4.22261V31.9386C-0.00143337 32.4918 0.107035 33.0399 0.319228 33.5516C0.53142 34.0632 0.843181 34.5284 1.23669 34.9205C1.63021 35.3126 2.09777 35.624 2.61267 35.8369C3.12756 36.0498 3.67971 36.16 4.23757 36.1612H27.6841L26.583 32.3692L29.2287 34.8088L31.7297 37.105L36.1781 41V4.22261C36.1795 3.6686 36.0707 3.11976 35.8579 2.60751C35.6452 2.09526 35.3326 1.62968 34.938 1.23743C34.5435 0.845185 34.0749 0.533975 33.5589 0.321636C33.0429 0.109296 32.4897 -1.86187e-06 31.9311 0ZM23.9593 26.7739C23.9593 26.7739 23.2153 25.8925 22.5956 25.1126C24.0942 24.7628 25.4197 23.8986 26.3376 22.6729C25.594 23.1636 24.7966 23.5691 23.9609 23.8818C22.999 24.2889 21.993 24.5846 20.9628 24.7632C19.1943 25.0858 17.3807 25.0789 15.6148 24.7429C14.5743 24.5435 13.5544 24.2501 12.568 23.8662C12.0496 23.6684 11.5456 23.4354 11.0595 23.169C10.9981 23.1284 10.9352 23.1081 10.8739 23.066C10.8426 23.0509 10.8143 23.0303 10.7905 23.0052C10.4177 22.8008 10.2117 22.6573 10.2117 22.6573C11.0963 23.8574 12.376 24.7132 13.8295 25.0767C13.2097 25.8566 12.4437 26.7785 12.4437 26.7785C11.2155 26.8108 9.99813 26.5431 8.89878 25.9991C7.79942 25.4551 6.85178 24.6514 6.13927 23.6588C6.20741 19.4995 7.22774 15.41 9.12317 11.6991C10.7881 10.4025 12.8178 9.65036 14.9321 9.54649L15.1382 9.79295C13.1469 10.2805 11.2886 11.1977 9.69573 12.4791C9.69573 12.4791 10.1503 12.2326 10.9148 11.8848C12.4006 11.2121 13.9841 10.7762 15.6069 10.5932C15.7224 10.5696 15.8398 10.5561 15.9577 10.5526C17.3431 10.3737 18.7452 10.3601 20.1339 10.5121C22.3176 10.759 24.4315 11.4272 26.3565 12.4791C24.8461 11.2598 23.0919 10.3724 21.2098 9.87563L21.4992 9.54805C23.6136 9.65192 25.6433 10.4041 27.3082 11.7007C29.1997 15.4099 30.2173 19.4965 30.2842 23.6525C29.5665 24.6448 28.615 25.448 27.5126 25.9921C26.4102 26.5361 25.1903 26.8045 23.9593 26.7739Z" fill="#7289DA"/>
</svg>
