<svg width="41" height="41" viewBox="0 0 41 41" fill="none" xmlns="http://www.w3.org/2000/svg">
    <g clip-path="url(#clip0)">
    <path d="M14.0742 40.9993C14.3925 40.8568 14.6634 40.622 14.8534 40.3237C15.0434 40.0254 15.1443 39.6767 15.1438 39.3203V34.3821C15.1453 34.1987 15.1572 34.0155 15.1795 33.8334H15.1438H11.935C11.3298 33.8812 10.7239 33.7519 10.1874 33.4606C9.651 33.1692 9.20612 32.7277 8.90443 32.1874C8.28049 30.9985 8.01309 28.9867 6.40867 27.8893C6.14127 27.7064 6.31954 27.432 6.85434 27.432C7.82354 27.7679 8.66539 28.4077 9.26097 29.261C9.58293 29.7959 10.0273 30.242 10.5554 30.5607C11.0835 30.8795 11.6795 31.0611 12.2915 31.09C13.6844 31.2288 15.0899 31.0559 16.4113 30.5834C16.7329 29.9787 17.1895 29.4608 17.7439 29.0723C18.2983 28.6838 18.9346 28.4357 19.6005 28.3484V28.3264C14.5484 28.16 11.3218 26.4371 9.81895 23.7778C7.2294 23.8017 4.64491 24.0175 2.08566 24.4234C2.03455 24.1247 1.98999 23.8241 1.95196 23.5217C4.41366 23.1302 6.89858 22.9121 9.38932 22.8688C9.28938 22.6153 9.20309 22.3564 9.13083 22.0933C6.69929 21.9643 4.26222 21.9936 1.8343 22.1811C1.81647 21.8775 1.7933 21.5757 1.78973 21.2666C4.16776 21.0834 6.55449 21.0498 8.93652 21.166C8.86185 20.6998 8.8231 20.2283 8.82064 19.7559C8.84582 18.1064 9.37592 16.5068 10.3359 15.1834C9.89026 13.6288 9.26632 10.3367 10.5142 9.14784C12.3217 9.15427 14.0649 9.83711 15.4166 11.0683C17.0284 10.3928 18.7544 10.0509 20.4955 10.0623C22.209 10.0419 23.9083 10.3843 25.487 11.0683C26.8387 9.83711 28.5818 9.15427 30.3894 9.14784C31.7264 10.4281 31.0133 13.7203 30.5676 15.1834C31.5523 16.4881 32.0573 18.1071 31.9938 19.7559C31.9905 20.1845 31.9577 20.6123 31.8957 21.0361C34.3316 20.9119 36.7726 20.9431 39.2048 21.1294C39.2048 21.4367 39.1762 21.7385 39.1602 22.0439C36.6812 21.8526 34.1927 21.8257 31.7103 21.9634C31.6323 22.268 31.5359 22.5674 31.4215 22.8596C33.9724 22.8891 36.5182 23.0993 39.0407 23.4888C39.0027 23.7924 38.9581 24.093 38.907 24.3905C36.2876 23.9849 33.6428 23.7764 30.9937 23.7668C29.5105 26.3987 26.3409 28.1143 21.3886 28.3154V28.3429C23.7061 28.3429 25.8453 31.9094 25.8453 34.3785V39.3167C25.8448 39.673 25.9457 40.0218 26.1358 40.32C26.3258 40.6183 26.5966 40.8531 26.9149 40.9957C31.5425 39.4286 35.4746 36.2216 38.0063 31.9496C40.538 27.6776 41.5037 22.6201 40.7302 17.6838C39.9567 12.7476 37.4946 8.2554 33.7854 5.01281C30.0761 1.77022 25.3624 -0.0107422 20.4892 -0.0107422C15.6161 -0.0107422 10.9023 1.77022 7.19308 5.01281C3.48385 8.2554 1.02175 12.7476 0.248236 17.6838C-0.525275 22.6201 0.440393 27.6776 2.9721 31.9496C5.5038 36.2216 9.43595 39.4286 14.0635 40.9957L14.0742 40.9993Z" fill="#333333"/>
    </g>
    <defs>
    <clipPath id="clip0">
    <rect width="41" height="41" fill="white"/>
    </clipPath>
    </defs>
    </svg>
    