<svg width="205" height="404" viewBox="0 0 2156 404" fill="none" xmlns="http://www.w3.org/2000/svg">
	<g filter="url(#filter0_d_6_33)">
		<path
			d="M79.8127 360.65L63.6235 352.161V240.736L79.8127 232.6L95.6575 240.736L79.8127 248.871V360.65Z"
			fill="#BFBFBF" />
		<path d="M95.6575 352.514L79.8127 360.65V248.871L95.6575 240.736V352.514Z" fill="#818181" />
		<path
			d="M79.4683 360.65L63.2791 352.161V240.736M79.4683 360.65L95.313 352.514V240.736M79.4683 360.65V248.871M63.2791 240.736L79.4683 248.871M63.2791 240.736L79.4683 232.6L95.313 240.736M79.4683 248.871L95.313 240.736"
			stroke="white" stroke-width="6" stroke-linejoin="round" />
		<path
			d="M47.4342 344.379L31.245 335.889V224.464L47.4342 216.328L63.279 224.464L47.4342 232.6V344.379Z"
			fill="#BFBFBF" />
		<path d="M63.279 336.243L47.4342 344.379V232.6L63.279 224.464V336.243Z" fill="#818181" />
		<path
			d="M47.4342 344.379L31.245 335.889V224.464M47.4342 344.379L63.279 336.243V224.464M47.4342 344.379V232.6M31.245 224.464L47.4342 232.6M31.245 224.464L47.4342 216.328L63.279 224.464M47.4342 232.6L63.279 224.464"
			stroke="white" stroke-width="6" stroke-linejoin="round" />
		<path
			d="M87.7351 233.307V253.116L22.9782 220.219V200.41L39.1674 191.921L103.58 224.818L87.7351 233.307Z"
			fill="#BFBFBF" />
		<path d="M87.735 253.116V233.307L103.58 224.818V245.334L87.735 253.116Z" fill="#818181" />
		<path
			d="M103.58 224.818V245.334L87.7351 253.116M103.58 224.818L87.7351 233.307M103.58 224.818L39.1674 191.921L22.9782 200.41M87.7351 233.307V253.116M87.7351 233.307L22.9782 200.41M87.7351 253.116L22.9782 220.219V200.41"
			stroke="white" stroke-width="6" stroke-linejoin="round" />
		<path
			d="M95.6575 150.18L79.8127 158.316V229.062L63.6235 220.927V150.18L79.8127 142.045L95.6575 150.18Z"
			fill="#BFBFBF" />
		<path d="M95.6575 150.18L79.8127 158.316V229.062L95.6575 220.927V150.18Z" fill="#818181" />
		<path
			d="M79.4683 158.316L95.313 150.18M79.4683 158.316L63.2791 150.18M79.4683 158.316V229.062M95.313 150.18L79.4683 142.045L63.2791 150.18M95.313 150.18V220.927L79.4683 229.062M63.2791 150.18V220.927L79.4683 229.062"
			stroke="white" stroke-width="6" stroke-linejoin="round" />
		<path
			d="M63.279 133.909L47.4342 142.045V212.791L31.245 204.655V133.909L47.4342 125.773L63.279 133.909Z"
			fill="#BFBFBF" />
		<path d="M63.279 133.909L47.4342 142.045V212.791L63.279 204.655V133.909Z" fill="#818181" />
		<path
			d="M47.4342 142.045L63.279 133.909M47.4342 142.045L31.245 133.909M47.4342 142.045V212.791M63.279 133.909L47.4342 125.773L31.245 133.909M63.279 133.909V204.655L47.4342 212.791M31.245 133.909V204.655L47.4342 212.791"
			stroke="white" stroke-width="6" stroke-linejoin="round" />
		<path
			d="M122.869 130.372L99.4464 142.752V172.819L3 123.651V93.2298L27.1116 80.4955L122.869 130.372Z"
			fill="#BFBFBF" />
		<path d="M122.869 130.372L99.4464 142.752V172.819L122.869 160.439V130.372Z" fill="#818181" />
		<path
			d="M99.4464 142.752L122.869 130.372M99.4464 142.752V172.819M99.4464 142.752L3 93.2298M122.869 130.372V160.439L99.4464 172.819M122.869 130.372L27.1116 80.4955L3 93.2298M99.4464 172.819L3 123.651V93.2298"
			stroke="white" stroke-width="6" stroke-linejoin="round" />
		<path
			d="M63.2791 59.2716V120.113L47.0898 111.624V51.1358L63.2791 43L79.4683 51.1358L63.2791 59.2716Z"
			fill="#BFBFBF" />
		<path d="M63.2791 120.113V59.2716L79.4683 51.1358V111.624L63.2791 120.113Z" fill="#818181" />
		<path
			d="M63.2791 59.2716V120.113M63.2791 59.2716L47.0898 51.1358M63.2791 59.2716L79.4683 51.1358M63.2791 120.113L47.0898 111.624V51.1358M63.2791 120.113L79.4683 111.624V51.1358M47.0898 51.1358L63.2791 43L79.4683 51.1358"
			stroke="white" stroke-width="6" stroke-linejoin="round" />
	</g>
	<g filter="url(#filter1_d_6_33)">
		<path
			d="M260.126 140H285.126V115H360.126V140H385.126V290H360.126V190H285.126V290H260.126V140ZM285.126 165H360.126V140H285.126V165ZM510.029 190H435.029V290H410.029V165H510.029V190H535.029V290H510.029V190ZM559.931 115H584.931V140H559.931V115ZM559.931 165H584.931V290H559.931V165ZM659.98 190H634.98V290H609.98V165H659.98V190H684.98V240H659.98V190ZM709.98 190H684.98V165H709.98V190H734.98V290H709.98V190ZM859.882 190H784.882V165H859.882V190H884.882V290H784.882V265H759.882V240H784.882V265H859.882V240H784.882V215H859.882V190ZM959.784 265H934.784V190H909.784V165H934.784V115H959.784V165H984.784V190H959.784V265H984.784V290H959.784V265ZM1009.88 190H1034.88V165H1109.88V190H1134.88V240H1034.88V265H1134.88V290H1034.88V265H1009.88V190ZM1034.88 215H1109.88V190H1034.88V215ZM1184.78 165H1234.78V190H1259.78V115H1284.78V290H1184.78V265H1159.78V190H1184.78V265H1259.78V215H1234.78V190H1184.78V165ZM1484.64 115H1509.64V265H1484.64V115ZM1409.64 265H1384.64V240H1409.64V265H1484.64V290H1409.64V265ZM1634.54 190H1559.54V165H1634.54V190H1659.54V290H1559.54V265H1534.54V240H1559.54V265H1634.54V240H1559.54V215H1634.54V190ZM1709.44 240H1684.44V165H1709.44V240H1734.44V265H1759.44V290H1734.44V265H1709.44V240ZM1784.44 165H1809.44V240H1784.44V165ZM1759.44 240H1784.44V265H1759.44V240ZM1934.35 190H1859.35V165H1934.35V190H1959.35V290H1859.35V265H1834.35V240H1859.35V265H1934.35V240H1859.35V215H1934.35V190Z"
			fill="white" />
	</g>
	<defs>
		<filter id="filter0_d_6_33" x="0" y="36" width="139.869" height="331.65"
			filterUnits="userSpaceOnUse" color-interpolation-filters="sRGB">
			<feFlood flood-opacity="0" result="BackgroundImageFix" />
			<feColorMatrix in="SourceAlpha" type="matrix"
				values="0 0 0 0 0 0 0 0 0 0 0 0 0 0 0 0 0 0 127 0" result="hardAlpha" />
			<feOffset dx="10" />
			<feGaussianBlur stdDeviation="2" />
			<feComposite in2="hardAlpha" operator="out" />
			<feColorMatrix type="matrix" values="0 0 0 0 0 0 0 0 0 0 0 0 0 0 0 0 0 0 0.25 0" />
			<feBlend mode="normal" in2="BackgroundImageFix" result="effect1_dropShadow_6_33" />
			<feBlend mode="normal" in="SourceGraphic" in2="effect1_dropShadow_6_33" result="shape" />
		</filter>
		<filter id="filter1_d_6_33" x="260.126" y="115" width="1714.22" height="190"
			filterUnits="userSpaceOnUse" color-interpolation-filters="sRGB">
			<feFlood flood-opacity="0" result="BackgroundImageFix" />
			<feColorMatrix in="SourceAlpha" type="matrix"
				values="0 0 0 0 0 0 0 0 0 0 0 0 0 0 0 0 0 0 127 0" result="hardAlpha" />
			<feOffset dx="15" dy="15" />
			<feComposite in2="hardAlpha" operator="out" />
			<feColorMatrix type="matrix" values="0 0 0 0 0 0 0 0 0 0 0 0 0 0 0 0 0 0 0.35 0" />
			<feBlend mode="normal" in2="BackgroundImageFix" result="effect1_dropShadow_6_33" />
			<feBlend mode="normal" in="SourceGraphic" in2="effect1_dropShadow_6_33" result="shape" />
		</filter>
	</defs>
</svg>